<svg fill="none" xmlns="http://www.w3.org/2000/svg">
    <g clip-path="url(#a)">
        <path
            d="M.096 163.904C.096 110.617.064 57.33 0 4.042 0 .663.662 0 4.034 0c65.643.13 131.287.13 196.93 0 3.372 0 4.044.663 4.036 4.042-.138 51.968-.138 103.94 0 155.916 0 3.379-.662 4.048-4.036 4.042-66.955-.127-133.911-.159-200.868-.096Z"
            fill="#FEFEFE" />
        <path
            d="M104.434 99.759c-3.002.677-3.086 2.992-2.933 5.368.272 4.194.917 8.209-.216 12.589-.921 3.556 1.909 6.541 5.622 8.148 4.864 2.105 10.163 3.362 15.48 7.196-3.977.141-6.066-2.096-8.576-2.385-2.969 2.623 3.657 5.789-.567 8.552-.285-3.349-1.698-7.048-3.816-8.001-2.211-.995-5.567-.925-8.43-1.35-.868 2.136 2.14 3.005 1.065 5.441-2.4-2.205-4.833-4.145-7.797-5.354-4.464-1.816-2.722 5.756-6.71 4.164.627-8.221-6.904-2.005-9.377-5.224.37-.191.748-.362 1.136-.513 9.918-3.213 14.46-9.606 14.56-20.172.04-4.357-3.323-4.584-6.142-5.584l.069.084c-2.574-3.358-5.817-5.764-9.885-6.986.93-3.18 4.08-.127 5.479-1.957a2.162 2.162 0 0 1 1.344-.325c1.653.542 2.575 1.939 3.647 3.16.995 1.135 2.151 2.377 3.716 1.89 1.824-.565 1.189-2.437 1.333-3.83.066-.648 0-1.308 0-1.957-.05-.804-.146-1.601-.558-2.321-.72-1.219-1.977-2.04-2.51-3.398a1.421 1.421 0 0 1 .34-1.139c2.7-.44 4.206 1.954 6.296 3.072 1.138-1.982 1.081-3.722.346-5.366-.984-2.196-1.267-4.64-.537-6.668 2.242-6.228-1.233-10.508-4.403-14.992.212-1.094.924-1.17 1.81-.89l1.634-.726c.827-.1 1.255.158.951 1.068.157.954.12 1.984.483 2.849 2.151 5.145 3.404 5.455 7.689 2.036.894-.713 1.757-1.468 2.634-2.205a.868.868 0 0 1 .694-.642c1.142-.315 1.625-1.28 2.153-2.205.627-.518 1.281-.513 1.945-.064l1.834-.071c.979-.26 1.899-.065 2.79.354 2.133 1.567 4.932 1.241 7.166 2.52.516.464 2.181.126 1.586 1.102-.615 1.003-1.454 2.75-3.332 2.025-.901-.348-1.678-1.077-2.592-1.327-4.631-1.26-9.128-2.036-13.181 1.844-4.735 4.545-7.688 9.414-4.462 16.083.868 1.797 1.447 3.64 1.375 5.67-.071 1.974-.237 3.917 2.287 4.791 2.602.9 5.115 2.398 7.467-.408.813-.134 1.149.238 1.085 1.03-.742 1.523-2.197 2.947.398 4.356 2.402 1.304 3.609.268 4.607-1.687 1.677-3.258 3.978-5.669 7.968-4.724 3.389.8 2.667-3.088 4.683-3.716l-.087-.07c.227 2.188.494 4.353 3.034 5.181v.536c-2.87 1.13-5.777.568-8.689.234-2.269-.261-3.708.736-4.359 2.97-.595 2.048-1.659 4.141 1.282 5.301.714.172 1.109.562.925 1.351-2.017.84-3.632-.141-5.468-.882-2.196-.883-4.908-1.645-5.289 2.285l-.433.218-.452-.173c-1.927-2.389-.521-7.622-5.963-7.016-.604.546-1.27.972-2.149.86Z"
            fill="#3A3A3B" />
        <path
            d="M135.916 36.991c3.823 1.08 6.224 3.136 8.054 5.903a6.393 6.393 0 0 1 .784 5.634c-.471 1.418-1.883 1.003-2.965.858-2.312-.315-4-1.637-4.527-3.885-.629-2.65-.874-5.388-1.346-8.51Z"
            fill="#90C745" />
        <path
            d="M71.837 41.607c-2.078-.124-3.823-.298-4.428-1.68-.636-1.449.608-2.799 1.614-3.846 2.453-2.553 5.743-2.847 9.013-3.066.832-.055 1.936.265 1.126 1.317-2.198 2.858-3.436 6.85-7.325 7.275Z"
            fill="#5C8A49" />
        <path
            d="M94.68 26.066c-2.257 2.804-3.872 5.237-5.916 7.228-1.926 1.874-4.708 1.47-6.215-.238-1.937-2.205.508-3.923 2.058-5.094 2.67-2.016 5.843-2.441 10.074-1.896Z"
            fill="#91C747" />
        <path
            d="M123.609 30.371c4.216.828 6.964 2.214 8.8 4.852 1.151 1.653 2.786 4.085.516 5.534-2.156 1.375-4.974.51-6.276-1.974-1.234-2.374-1.863-5.066-3.04-8.412Z"
            fill="#598847" />
        <path
            d="M151.231 70.624c-.241 1.153-.314 2.85-.966 4.28-.854 1.868-2.197 4.34-4.551 3.272-2.212-1.001-2.582-3.744-1.748-6.056.471-1.309 1.57-2.47 2.589-3.482 1.099-1.085 1.811-3.45 3.504-2.865 1.637.566.793 2.85 1.172 4.85Z"
            fill="#8FC643" />
        <path
            d="M104.443 23.768c-.268 3.2-1.219 5.79-2.458 8.189-1.413 2.721-4.284 3.715-6.59 2.082-2.026-1.44-.407-3.937.831-5.613 1.918-2.578 4.742-3.727 8.217-4.658Z"
            fill="#598847" />
        <path
            d="M79.254 44.295c.508 3.452 1.215 6.121 1.205 8.786-.011 2.789-2.197 4.84-4.66 4.702-2.839-.157-2.24-3.132-2.04-5.093.314-3.21 2.08-5.702 5.495-8.395Z"
            fill="#91C747" />
        <path
            d="M58.713 56.169c.941 3.3 1.903 5.768 2.292 8.326.471 3.082-1.457 5.511-4.211 5.56-2.463.05-2.667-2.91-2.578-5.014.138-3.228 1.774-5.817 4.497-8.872Z"
            fill="#578645" />
        <path
            d="M116.374 34.464c.269 3.293.785 6.02.628 8.712-.157 2.815-2.38 4.675-4.91 4.36-2.862-.357-2.113-3.283-1.774-5.197.598-3.324 2.799-5.639 6.056-7.875Z"
            fill="#558542" />
        <path
            d="M142.608 50.974c3.474 1.154 5.832 2.822 7.255 5.512.965 1.825 2.238 4.43-.191 5.546-2.326 1.07-4.864-.173-5.897-2.912-.912-2.428-1.304-5.005-1.167-8.146Z"
            fill="#578745" />
        <path
            d="M66.902 43.046c0 3.237.314 5.827-.079 8.322-.47 3.015-2.945 4.864-5.66 4.014-2.354-.739-1.58-3.644-.906-5.555 1.057-2.995 3.345-4.968 6.645-6.78Z"
            fill="#558543" />
        <path
            d="M90.703 85.863c.03.305.03.612 0 .916-1.304 1.575-2.981 1.426-4.707 1.027-.818-.367-1.514-.822-1.346-1.89-.997-2.703-1.952-5.445-5.726-4.792-.242-.239-.322-.48-.242-.72.079-.24.157-.361.239-.361 3.118-3.308-.34-4.339-2.067-5.967-.272-.24-.376-.495-.313-.762.064-.276.136-.413.218-.413.676-1.26.22-2.57.157-3.861-.068-.49.157-.745.635-.797l1.514 2.677c.226.461.808.67.876 1.244.612 3.357 2.928 5.817 4.55 8.638.588 1.022 1.412 1.33 2.264.187 2.497-.288.774 2.213 1.874 2.847l2.074 2.027Z"
            fill="#49494A" />
        <path
            d="M54.696 74.213c2.887 1.417 4.117 3.593 5.616 5.461 1.43 1.784.913 3.672-.132 5.493-.512.891-1.083 1.84-2.234 1.315-1.71-.788-2.833-2.235-3.377-4.016-.781-2.557-.486-5.126.127-8.253Z"
            fill="#93C94B" />
        <path
            d="M111.802 28.675c-1.051 2.992-1.628 5.197-2.597 7.23-1.241 2.605-3.903 3.686-6.058 2.197-2.016-1.396-.711-3.852.731-5.512 1.838-2.118 4.127-3.474 7.924-3.915Z"
            fill="#90C644" />
        <path d="M132.086 88.962c-.531-6.416 1.107-8.622 8.077-10.61-.275 5.542-2.027 9.708-8.159 10.54l.082.07Z"
            fill="#91C748" />
        <path
            d="M112.538 25.048c3.08-.574 5.625.394 7.776 2.284 1.322 1.16 3.052 2.92 1.442 4.567-1.61 1.647-4.079 1.445-5.702-.429-1.562-1.812-3.141-3.737-3.516-6.422Z"
            fill="#92C749" />
        <path
            d="M98.005 36.836c.545 2.9.459 5.363-.351 7.669-.785 2.237-2.81 3.669-4.97 2.73-1.964-.855-1.197-3.171-.53-4.8 1.019-2.483 2.873-4.27 5.851-5.6Z"
            fill="#608D4E" />
        <path
            d="M151.219 77.713c.794 3.563.627 6.114-.766 8.347-.954 1.518-2.354 3.863-4.451 2.24-1.715-1.327-1.861-3.809-.135-5.668 1.418-1.522 3.064-2.835 5.352-4.919Z"
            fill="#5F8B4E" />
        <path
            d="M138.012 57.48c-1.08 3.744-3.148 6-6.72 6.6-2.836.473-3.567-.795-2.354-3.306 1.891-3.95 5.374-3.372 9.074-3.295Z"
            fill="#96C850" />
        <path
            d="M63.334 77.164c2.677.616 4.738 1.617 6.433 3.09 1.643 1.426 2.092 3.69.555 5.206-1.391 1.378-3.084-.092-4.216-1.195-1.787-1.739-2.716-3.952-2.772-7.101Z"
            fill="#5D8A4B" />
        <path
            d="M102.88 41.848c1.935 1.206 2.908 3.104 3.892 4.904 1.219 2.23.45 4.543-1.679 5.279-2.067.713-2.947-1.638-3.331-3.28-.549-2.325-.615-4.755 1.118-6.903Z"
            fill="#5B8948" />
        <path
            d="M122.701 79.89c-.792 3.35-2.496 5.082-4.695 6.248-1.526.81-3.695 1.854-4.647-.357-.857-1.987.357-3.96 2.501-4.631 1.986-.626 4.122-.785 6.841-1.26Z"
            fill="#5F8D4E" />
        <path d="m114.429 94.74-1.084-1.028c.714-4.71 3.99-6.224 8.656-6.852-1.053 4.477-2.385 7.98-7.572 7.88Z"
            fill="#95C652" />
        <path
            d="M122.124 37.993c2.807 1.181 4.173 3.214 4.823 5.58.445 1.625.952 4.124-1.395 4.511-2.04.335-3.808-1.362-3.97-3.568-.154-2.076.32-4.202.542-6.523Z"
            fill="#5C8A4A" />
        <path
            d="M135.04 94.61a.477.477 0 0 1-.009-.535c2.962-3.508 6.417-5.24 10.898-2.954-2.449 4.687-4.556 5.384-10.889 3.488Z"
            fill="#5B884B" />
        <path
            d="M66.312 62.115c2.57 1.663 3.16 3.9 3.38 6.085.185 1.85-.1 4.402-2.567 4.252-1.995-.121-3.283-2.151-2.825-4.367.415-1.973 1.278-3.848 2.012-5.97Z"
            fill="#99CA53" />
        <path
            d="M139.035 102.944c.882.303 3.248-.521 2.816 1.164-.72 2.811-3.249 4.303-6.257 4.455-1.312.068-2.922-.041-2.608-1.923.541-3.247 2.984-3.903 6.049-3.696Z"
            fill="#719962" />
        <path
            d="m124.199 104.466-.927-1.353c1.189-.365 2.809.472 3.587-.898 2.244-3.965 5.602-2.497 9.173-2.362-3.005 5.027-7.223 5.353-11.833 4.613Z"
            fill="#568645" />
        <path
            d="m116.17 62.203-1.942-1.14c1.072-1.466 2.594-2.362 2.553-4.81-.057-3.438 3.632-3.536 5.782-5.114 1.523 2.13-.127 3.622-.342 5.265-1.127 2.864-3.816 4.096-6.051 5.8Z"
            fill="#628C52" />
        <path
            d="M73.177 104.919c-.558-1.527.644-2.439 1.146-3.538.918-2.014 2.265-3.622 4.799-3.216.962.157 1.964.62 1.768 1.861-.369 2.328-2.024 3.622-4.064 4.378-1.139.425-2.336 1.092-3.65.515Z"
            fill="#5E8A4D" />
        <path
            d="M96.8 61.361c-.313-.354-.63-.71-.952-1.066 1.255-2.37-.758-4.277-.86-6.384-.09-1.857.942-3.712 2.335-5.526 4.872 4.666.701 8.78-.523 12.976Z"
            fill="#5D884D" />
        <path
            d="M85.925 47.355c2.542.104 4.212 1.351 5.432 3.088.88 1.252 2.197 3.043.251 4.183-1.705 1.001-3.57.075-4.43-1.732-.8-1.671-1.596-3.471-1.253-5.539Z"
            fill="#628D50" />
        <path
            d="M129.448 79.339c-1.911-3.092-3.535-5.78-.822-8.68.805-.864 1.966-1.503 2.774-.016 1.763 3.245.312 5.891-1.952 8.696Z"
            fill="#5D884A" />
        <path
            d="M58.388 92.061c2.098 1.088 3.744 1.75 5.178 2.732 1.862 1.28 2.489 3.405.863 4.942-1.426 1.348-2.981-.228-4.039-1.433-1.308-1.485-1.947-3.29-2.002-6.24Z"
            fill="#94C84C" />
        <path
            d="M94.215 61.02c-.601.298-1.202.598-1.806.892-2.73-.921-6.151.893-8.346-2.171-.448-.623-1.456-1.052-.9-1.95.26-.416 1.077-.527 1.665-.687 4.138-1.127 6.335 2.413 9.387 3.915Z"
            fill="#93C64C" />
        <path
            d="M132.492 45.495c1.269 1.99 1.767 3.896 1.373 5.874-.305 1.532-.832 3.657-2.839 3.124-1.892-.5-2.584-2.497-1.76-4.415.681-1.596 1.25-3.36 3.226-4.583Z"
            fill="#628F52" />
        <path
            d="M116.17 62.203c.016-4.033 4.596-3.28 6.054-5.803l.742.9c.974 1.575-.457 3.724 1.24 5.12 0 .503-.011 1.009-.016 1.513-2.809.055-5.744.704-8.02-1.73Z"
            fill="#F0F2EE" />
        <path
            d="M110.669 75.219c-.439 2.398-1.807 3.789-3.488 4.768-1.352.788-3.238 1.782-4.192-.251-.772-1.646.359-3.197 2.013-3.859a10.755 10.755 0 0 1 5.667-.658Z"
            fill="#638F53" />
        <path
            d="M141.301 64.128c.044 3.047-.706 4.96-2.197 6.457-1.064 1.075-2.511 2.677-4.006.998-1.142-1.284-.767-3.216.643-4.3 1.496-1.142 3.288-1.89 5.56-3.155Z"
            fill="#598747" />
        <path d="m77.548 68.243-.628.798c-4.785-.73-5.983-4.064-6.205-8.518 4.4.988 6.626 3.457 6.833 7.72Z"
            fill="#5C8A4B" />
        <path
            d="M67.661 92.008c-4.27.877-4.442.77-7.451-4.846 4.374-.956 7.06.99 8.962 4.55-.403.608-.906.707-1.51.296Z"
            fill="#638E51" />
        <path
            d="m84.645 85.913 1.272 1.26c-.663 2.151-.6 4.44-1.222 6.598a3.738 3.738 0 0 0-.864.158c-.4.327-.746.294-1.027-.158-3.163-1.494-4.763-3.936-4.588-7.732 2.166-.121 4.449 2.555 6.429-.126Z"
            fill="#628B53" />
        <path
            d="M71.052 96.8c2.532 4.208-.9 5.952-3.476 8.661-1.543-4.192-.643-7.176 2.41-9.62.612.034.738.61 1.066.959Z"
            fill="#5C894A" />
        <path d="M87.733 102.639c-.189 4.39-3.156 5.472-7.665 6.066 1.743-3.926 2.51-7.668 7.734-5.984l-.07-.082Z"
            fill="#A2CD65" />
        <path
            d="M117.296 74.816c-2.321-1.211-3.338-2.737-3.834-4.47-.427-1.494-1.057-3.697 1.113-4.125 1.983-.39 3.37 1.222 3.401 3.307.026 1.603-.393 3.21-.68 5.288Z"
            fill="#618D52" />
        <path
            d="M72.927 43.914c1.087 3.726 1.166 6.482-2.12 8.134-.8.403-1.78.315-2.04-.611-.975-3.55 1.453-5.28 4.16-7.523Z"
            fill="#628D51" />
        <path
            d="M85.864 37.711c.44.36.628.441.637.534.191 2.705.989 5.644-2.37 7.135-.931.413-2.056.485-2.284-.834-.602-3.5 1.674-5.19 4.017-6.835Z"
            fill="#5E8A4C" />
        <path
            d="M88.7 73.213c.693-.441 1.367-.81 2.259-.501 1.782.616 3.98.556 4.649 2.92.226.804.301 1.867-.47 2.204-2.248.994-3.395-1.127-4.96-2.085-.758 1.103-.052 2.706-1.305 3.581-1.947-1.984-1.675-4.034-.172-6.12Z"
            fill="#6B965E" />
        <path
            d="M104.434 99.759c.417-1.055 1.352-.803 2.164-.862 2.667 1.972 2.957 4.54 1.983 7.874-3.181-1.565-4.302-3.897-4.147-7.012Z"
            fill="#6B935A" />
        <path
            d="M112.557 105.913a.841.841 0 0 1 .885-.047c.607.516 1.152 1.141 1.831 1.526 2.115 1.196 2.667 3.196 2.725 5.354.019.726-.85.861-1.507.559-2.153-.984-3.989-2.268-4.063-4.961-.022-.807.082-1.62.129-2.431Z"
            fill="#9BC85F" />
        <path
            d="M121.457 74.128c.084-2.047.393-3.887 2.931-4.326 1.821-.315 1.821.902 1.76 2.025-.135 2.472-1.384 4.567-3.701 5.083-1.27.28-.8-1.745-.99-2.782Z"
            fill="#69915A" />
        <path
            d="m71.052 96.8-1.072-.953c.562-2.094-1.64-2.507-2.327-3.84.506-.097 1.01-.196 1.513-.294 4.153 3.279 8.99 2.02 13.63 2.058l1.027.158c-1.555 1.975-4.362-.158-5.917 1.81-2.258.497-4.857-1.166-6.854 1.06Z"
            fill="#4D514D" />
        <path
            d="m88.7 73.213.17 6.126c-.662 1.469-.367 2.992-.245 4.5l-1.873-2.848c-2.506-4.615-2.057-6.402 1.949-7.778Z"
            fill="#5C8B4B" />
        <path d="m76.752 72.901.096 1.175c-2.562 2.656-5.358 2.4-8.522.526 2.423-2.92 5.202-3.306 8.426-1.701Z"
            fill="#5D8A4C" />
        <path
            d="m79.938 72.165-.877-1.245c1.153-1.691 2.303-3.383 3.746-5.502 1.726 2.759 1.907 5.127.27 7.368-1.192 1.633-2.198.183-3.14-.62Z"
            fill="#5C894D" />
        <path
            d="M146.394 96.645c-1.605 2.88-3.397 4.465-6.394 3.896-.942-.178-1.255-1.086-.847-1.922 1.559-3.197 4.285-1.983 7.241-1.974Z"
            fill="#5E8C4C" />
        <path d="m108.3 63.4-.697.646c-3.232-1.606-4.261-4.068-2.874-7.65 3.483 1.252 3.85 3.956 3.571 7.004Z"
            fill="#95C750" />
        <path
            d="M126.44 113.721c-3.268.091-5.415-.803-6.364-3.611-.397-1.174.438-1.799 1.556-1.786 3.336.039 3.79 2.617 4.808 5.397Z"
            fill="#588545" />
        <path d="m112.398 61.134-1.947.065c.19-2.843-2.981-5.7.174-8.661 3.716 2.228 1.039 5.798 1.773 8.596Z"
            fill="#5F8A51" />
        <path
            d="M128.597 84.364c.805 3.206.81 5.368-1.598 6.79-.763.45-1.345-.173-1.569-.682-1.276-2.915 1.129-3.918 3.167-6.108Z"
            fill="#658F56" />
        <path
            d="M110.388 84.186c-.881 2.538-2.276 4.094-4.961 3.98-1.079-.05-1.321-.946-.999-1.782 1.085-2.819 3.386-2.53 5.96-2.198Z"
            fill="#608D50" />
        <path
            d="M124.206 62.422c-4.665-.674-1.94-3.15-1.24-5.12.86-.267 1.957-2.629 2.467.232.315 1.777-.138 3.43-1.227 4.888Z"
            fill="#568545" />
        <path d="M78.913 80.043v1.081c-1.748 2.608-3.766 1.517-6.053.364 1.729-2.296 3.59-3.037 6.053-1.445Z"
            fill="#749766" />
        <path
            d="M89.3 66.657c2.616-.378 4.55-.578 5.439 1.828.248.676-.09 1.443-.757 1.522-2.22.256-3.508-.997-4.682-3.35Z"
            fill="#68935A" />
        <path
            d="M64.744 57.322c.399 2.23.658 4.033-1.584 4.87-.314.117-1.146-.237-1.196-.483-.417-2.061.485-3.442 2.78-4.387Z"
            fill="#558543" />
        <path
            d="M84.695 93.768c-.215-2.316-2.622-5.039 1.224-6.598l4.782-.39 2.839 3.228c.449.853-.171.993-.766 1.134-.445.107-.908.132-1.348.272.471.074.942-.019 1.423-.022.615 0 1.226-.046 1.638.542.056 1.141.27 2.302.128 3.419-.217 1.674 1.004 4.226-1.075 4.812-2.107.595-4.453-.4-5.933-2.47-.946-1.319-1.936-2.62-2.912-3.927Z"
            fill="#F6F7F6" />
        <path
            d="M94.488 91.934c-2.101.255-4.127 2.14-6.468.24 1.018-2.913 3.568-1.812 5.518-2.168.843.386 1.136 1.036.95 1.928Z"
            fill="#628E53" />
    </g>
</svg>